# xmcd
#
# Track frame offsets: 
#        183
#        13275
#        27125
#        40603
#        56828
#        72665
#        92983
#        141975
#        156355
#        175285
#        193340
#        213078
#        235910
#        250210
#        273100
#
# Disc length: 3900 seconds
#
# Revision: 3
# Processed by: cddbd v1.5.2PL0 Copyright (c) Steve Scherf et al.
# Submitted via: ExactAudioCopy v0.99pb4
#
DISCID=de0f3a0f
DTITLE=James Brown - James Brown 1956-1976 [CD 2)
DYEAR=1976
DGENRE=Soul
TTITLE0=Living Stick
TTITLE1=Give It Up Or Turn It A Loose
TTITLE2=Call Me Superbad
TTITLE3=Get It On The Good Foot
TTITLE4=The Playback
TTITLE5=Papa Don't Take No Mess
TTITLE6=(Get Up I Feel Like Being Like A) Sex Machine
TTITLE7=Hot Pants (She Got To Use What She Got To Get What She Wants)
TTITLE8=Get Up Offa That Thing
TTITLE9=Funky President (People It's Bad)
TTITLE10=Realty
TTITLE11=Hell
TTITLE12=Theese Foolish Things Remind Me Of You
TTITLE13=Don't Tell A Lie About Me And I Won't Tell The Truth On You
TTITLE14=I'm Satisfied
EXTD=
EXTT0=Brown, Ellis, Byrd\n1969
EXTT1=Bobbitt\n1969
EXTT2=Brown\n1970
EXTT3=Brown, Wesley, Mims\n1972
EXTT4=Brown, Wesley, Starks\n1974
EXTT5=Brown, Wesley, Starks\n1974
EXTT6=Brown, Byrd, R. Lenhoff\n1970
EXTT7=Brown, Wesley\n1971
EXTT8=D. Brown, D. Brown, Y. Brown\n1976
EXTT9=Brown\n1974
EXTT10=Brown, F. Wesley, G. Wesley\n1974
EXTT11=Brown\n1974
EXTT12=J. Strachey, H. Link, H. Marvell\n1974
EXTT13=Brown\n1974
EXTT14=D. Brown, D. Brown, Y. Brown\n1976
PLAYORDER=
